
<?xml version="1.0" standalone="no"?>
<!DOCTYPE svg PUBLIC "-//W3C//DTD SVG 20010904//EN"
 "http://www.w3.org/TR/2001/REC-SVG-20010904/DTD/svg10.dtd">
<svg version="1.0" xmlns="http://www.w3.org/2000/svg"
 width="161.000000pt" height="170.000000pt" viewBox="0 0 161.000000 170.000000"
 preserveAspectRatio="xMidYMid meet">

<g transform="translate(0.000000,170.000000) scale(0.100000,-0.100000)"
fill="#000000" stroke="none">
<path d="M1280 1552 c0 -4 9 -15 20 -25 11 -9 20 -20 20 -25 0 -9 -506 -512
-529 -526 -9 -6 -46 24 -127 105 l-114 113 -200 -199 c-110 -110 -200 -203
-200 -208 0 -4 7 -10 16 -14 11 -4 69 47 200 178 l183 183 22 -20 c13 -10 66
-61 118 -111 l96 -93 282 282 282 282 24 -22 c13 -12 26 -22 30 -22 4 0 7 29
7 65 l0 65 -65 0 c-36 0 -65 -3 -65 -8z"/>
<path d="M1350 641 c0 -363 2 -431 14 -431 21 0 28 154 24 530 -3 300 -4 325
-20 328 -17 3 -18 -22 -18 -427z"/>
<path d="M770 505 c0 -256 2 -295 15 -295 13 0 15 39 15 295 0 256 -2 295 -15
295 -13 0 -15 -39 -15 -295z"/>
<path d="M160 385 c0 -168 1 -175 20 -175 19 0 20 7 20 175 0 168 -1 175 -20
175 -19 0 -20 -7 -20 -175z"/>
</g>
</svg>
